<svg width="39" height="46" viewBox="0 0 39 46" fill="none" xmlns="http://www.w3.org/2000/svg">
<path d="M37.9179 40.6822L32.1473 34.1252C35.1568 30.1853 37.2379 26.9438 37.3588 26.7557C38.22 25.4087 37.8 23.6348 36.4199 22.7934C35.0408 21.9537 33.2224 22.3637 32.3602 23.7098C32.3353 23.75 30.6723 26.3401 28.2066 29.6472L19.1675 19.3759C20.4324 18.5774 21.5248 17.8127 22.4993 17.0105C27.5238 12.8787 27.3464 8.09457 25.505 4.99433C22.9672 0.723968 17.209 -1.12097 12.1174 0.696834C11.2983 0.988916 10.5983 1.32682 9.9797 1.72932C7.77 3.16619 6.27775 5.53249 5.88451 8.2199C5.49992 10.8493 6.23072 13.4618 7.91103 15.4116L10.1284 17.9315C9.75721 18.1393 9.37649 18.3509 8.9861 18.568C4.44307 21.0953 1.36155 25.4901 0.744897 30.323C0.165616 34.8582 1.78545 39.1762 5.30523 42.4814C7.76522 44.7915 10.8102 46 14.1486 46C14.375 46 14.6032 45.9944 14.8325 45.9831C20.4295 45.7107 25.3648 42.2399 28.1164 39.0835C28.2199 38.9636 28.3245 38.8439 28.4271 38.724L33.4487 44.4302C34.5085 45.6358 36.3691 45.7715 37.6034 44.7372C38.8377 43.703 38.9786 41.887 37.9179 40.6822V40.6822ZM11.7175 9.03335C11.8718 7.97939 12.4435 7.03765 13.2481 6.5144C14.02 6.02556 15.2679 5.72799 16.1675 5.74219C18.0597 5.74219 19.6873 6.66794 20.4075 7.87921C21.5641 9.82622 19.8359 11.6805 18.7033 12.6128C17.7912 13.3626 16.6547 14.1302 15.2871 14.967L12.4004 11.6871C11.8182 11.0113 11.5698 10.0443 11.7175 9.03335V9.03335ZM23.628 35.3561C21.1728 38.1736 17.6052 40.0897 14.539 40.2395C12.5413 40.3387 10.8582 39.7144 9.39076 38.3365C6.63731 35.7512 6.34863 32.9382 6.5922 31.0344C6.98066 27.9913 8.96585 25.199 11.9044 23.5647C12.6534 23.1472 13.3641 22.7522 14.0384 22.374L24.5333 34.2993C24.2351 34.6532 23.933 35.006 23.628 35.3561Z" fill="#FBF8F8"/>
</svg>
